# xmcd
#
# Track frame offsets: 
#        150
#        12008
#        26457
#        39587
#        53712
#        67710
#        85089
#        97714
#        109325
#        130067
#        145496
#        160406
#        190800
#        200209
#        218812
#
# Disc length: 3040 seconds
#
# Revision: 0
# Processed by: cddbd v1.5.2PL0 Copyright (c) Steve Scherf et al.
# Submitted via: ExactAudioCopy v0.99pb5
#
DISCID=c60bde0f
DTITLE=Marco Pandolfi and the Jacknives - Too Many Ways
DYEAR=2006
DGENRE=Blues
TTITLE0=Too many ways
TTITLE1=Depend on the water
TTITLE2=Funky preacher
TTITLE3=Gasoline gipsy
TTITLE4=Cry for me baby
TTITLE5=Pretty lil thing
TTITLE6=Why should I worry
TTITLE7=Gates are closed
TTITLE8=There'll be a day
TTITLE9=Come to me
TTITLE10=Hard boiled
TTITLE11=Three time wrong
TTITLE12=JackLeg
TTITLE13=Well you know (I love you)
TTITLE14=Dance alone
EXTD=
EXTT0=
EXTT1=
EXTT2=
EXTT3=
EXTT4=
EXTT5=
EXTT6=
EXTT7=
EXTT8=
EXTT9=
EXTT10=
EXTT11=
EXTT12=
EXTT13=
EXTT14=
PLAYORDER=
